<?xml version="1.0" standalone="no"?><!DOCTYPE svg PUBLIC "-//W3C//DTD SVG 1.1//EN" "http://www.w3.org/Graphics/SVG/1.1/DTD/svg11.dtd"><svg t="1585300081941" class="icon" viewBox="0 0 1024 1024" version="1.1" xmlns="http://www.w3.org/2000/svg" p-id="10648" xmlns:xlink="http://www.w3.org/1999/xlink" width="200" height="200"><defs><style type="text/css"></style></defs><path d="M809.6 626.1c-7.1-1.3-12.8-6.1-14.7-12.5-30.4-100.1-127-173.3-241.3-173.3-100.4 0-187.1 56.4-227.3 138-3.5 7-11.6 11.1-20 10.1-7-0.8-14.1-1.2-21.2-1.2-102.6 0-185.8 84.8-185.8 189.4 0 102.8 80.2 186.4 180.3 189.4v0.1H777v-0.5c102.1-2.1 184.1-78 184.1-171.3-0.1-83.3-65.2-152.6-151.5-168.2z" p-id="10649" fill="#ffffff"></path><path d="M126.1 574.9c9.3 6.8 21.7 7 31.4 0.8 26.3-16.6 56.3-37 88.2-37 7.2 0 14.3 0.5 21.2 1.4 8.4 1.1 15.3-4.3 20-11.6 63.4-96.4 162.4-142.5 227.3-147.1 75.1-5.4 182.7 25.6 228.7 81 2.3 2.7 5.6 3.8 9.1 4.1 1 0.1 1.4 2.3 1.4-4.9 0-71.3-88.1-141.9-152.3-156.5-6.9-1.6-12.4-6.8-14.4-13.8C563.2 205.5 490.6 143 404.6 143c-75 0-139.9 47.6-171 116.8-3.5 7.7-11.1 12.4-19.3 11.5-4.4-0.5-8.9-0.7-13.4-0.7-77.8 0-140.9 73.8-140.9 164.7 0 58.8 26.4 110.5 66.1 139.6z" p-id="10650" fill="#ffffff"></path></svg>