<?xml version="1.0" standalone="no"?><!DOCTYPE svg PUBLIC "-//W3C//DTD SVG 1.1//EN" "http://www.w3.org/Graphics/SVG/1.1/DTD/svg11.dtd"><svg t="1585300045293" class="icon" viewBox="0 0 1024 1024" version="1.1" xmlns="http://www.w3.org/2000/svg" p-id="10261" xmlns:xlink="http://www.w3.org/1999/xlink" width="200" height="200"><defs><style type="text/css"></style></defs><path d="M168.391111 275.342222h111.502222c25.031111 0 43.235556-18.204444 43.235556-43.235555V113.777778c0-15.928889-9.102222-20.48-20.48-9.102222L159.288889 254.862222c-11.377778 11.377778-6.826667 20.48 9.102222 20.48z" fill="#1296db" p-id="10262"></path><path d="M785.066667 86.471111H411.875556c-22.755556 0-43.235556 18.204444-43.235556 43.235556v145.635555c0 25.031111-18.204444 43.235556-43.235556 43.235556H179.768889c-25.031111 0-43.235556 18.204444-43.235556 43.235555v493.795556c0 47.786667 38.684444 86.471111 86.471111 86.471111h562.062223c47.786667 0 86.471111-38.684444 86.471111-86.471111v-682.666667c0-47.786667-38.684444-86.471111-86.471111-86.471111z m-59.164445 655.36H284.444444c-13.653333 0-22.755556-9.102222-22.755555-22.755555s9.102222-22.755556 22.755555-22.755556h441.457778c13.653333 0 22.755556 9.102222 22.755556 22.755556 0 11.377778-11.377778 22.755556-22.755556 22.755555z m0-161.564444H320.853333c-13.653333 0-22.755556-9.102222-22.755555-22.755556s9.102222-22.755556 22.755555-22.755555h402.773334c13.653333 0 22.755556 9.102222 22.755555 22.755555s-9.102222 22.755556-20.48 22.755556z m0-163.84h-159.288889c-13.653333 0-22.755556-9.102222-22.755555-22.755556s9.102222-22.755556 22.755555-22.755555h159.288889c13.653333 0 22.755556 9.102222 22.755556 22.755555s-11.377778 22.755556-22.755556 22.755556z" fill="#1296db" p-id="10263"></path></svg>